<?xml version="1.0" encoding="utf-8"?>
<!-- Generator: Adobe Illustrator 20.1.0, SVG Export Plug-In . SVG Version: 6.00 Build 0)  -->
<svg version="1.1" id="Layer_1" xmlns="http://www.w3.org/2000/svg" xmlns:xlink="http://www.w3.org/1999/xlink" x="0px" y="0px"
	 viewBox="0 0 3155.8 1045.7" style="enable-background:new 0 0 3155.8 1045.7;" xml:space="preserve">
<path d="M446,177.1L565.3,11h-89.9l-54.1,84.4c-8.1,13-8.9,14.8-13,23.8L340.3,11h-90.8l118,168H446V177.1z"/>
<path d="M1103.2,89.9c17.9,19.2,26.9,52.8,25.6,85.9c-2.2,66.2-42.5,93.2-80,93.2c-36.7,0-78.1-27-79.1-100h-77.8
	c0.6,90,57.3,166.6,157,166.6c32.7,0,68.4-7.7,99.3-33.2c34.9-28.2,59.9-77.4,59.9-132c0-21.5-6.4-126.6-103-160.2
	c-18.6-6.5-37-9.2-56-9.4v65.8C1070,67,1090.1,75.9,1103.2,89.9z"/>
<g>
	<path d="M1798.4,200.6c21.5-8.1,64.9-23.8,64.9-87.4c0-28.6-10.3-53.6-25-70.1C1809.2,11.8,1768,11,1734.9,11h-80L1593,73v254h44.3
		l34.7-35.1V214h49.5l62.6,113h87.2L1798.4,200.6z M1737.1,155H1672V70h66.9c16.5,0,45.6,1.6,45.6,41.8
		C1784.6,153.9,1748.3,155,1737.1,155z"/>
</g>
<path d="M2999.6,117.4c2.5-5.6,3.9-8.3,7.4-14.2C3003.4,109,3002.1,111.8,2999.6,117.4z"/>
<polygon points="3036,178.6 3036,178.6 3036,177.1 3095.7,93.9 3036,177.1 "/>
<polygon points="3065.9,10.7 3020.8,81.2 3065.9,10.7 "/>
<path d="M3007,103.2c0.3-0.5,0.7-1.1,1-1.7C3007.6,102.1,3007.3,102.6,3007,103.2z"/>
<polygon points="2998.8,119 2930.9,10.7 2930.9,10.7 2998.8,119 "/>
<polygon points="2873.9,58.9 2958.1,178.6 2958.1,178.6 "/>
<rect x="2038" y="723" width="78" height="316"/>
<path d="M2365,793.4c13.9,11.6,19.2,22.4,23.7,32.6l62.6-31.3c-8.9-15.7-19.2-33.1-41.2-50.5c-23.7-18.8-55.9-31.3-92.1-31.3
	c-82.6,0-143.1,63.1-151.9,146.1h78.8c5.7-45,31.9-81.3,76.6-81.3C2334.6,777.7,2349.8,781.3,2365,793.4z"/>
<path d="M2390,934.7c-10.7,18.3-27.3,47-68.5,47c-2.5,0-4.5-0.1-7.5-0.4v66.5c1,0,1.4,0,2.1,0c43.8,0,74.8-18.3,88.2-27.7
	c25-17.4,36.3-35.3,47.9-53.7L2390,934.7z"/>
<path d="M2692.4,858.7c-17.9-6.3-63.1-14.8-96.6-18.8c-13.4-1.8-40.3-5.4-40.3-29.5c0-15.2,15.7-33.1,47-33.1
	c20.1,0,40.3,7.6,51.4,13.9c12.5,7.2,21.5,15.7,31.3,25.5l58.1-41.6c-27.3-24.6-66.6-59.9-139.6-59.9c-54.6,0-127,24.2-127,105.6
	c0,68,65.8,81.9,85,85.9c17,3.6,34.4,5.8,51.9,8.1c23.3,3.1,55,7.2,55,32.2c0,21.9-26.8,36.7-58.1,36.7c-18.3,0-39.8-4-60.8-15.2
	c-15.7-8.5-22.4-15.7-30.4-24.6l-59.9,38c19.7,22.8,55,64,144,64c44.3,0,89.9-9.4,118.5-42.5c16.6-19.2,25-44.3,25-67.1
	C2747,900.3,2728.6,872.1,2692.4,858.7z"/>
<g>
	<path d="M1246.9,723h-65.3l22.7,75l0,0.3c0-0.1,0.1-0.4,0.1-0.5l41.2,133.2h-40.3h-39.8h-78.2l-39.8,108h84.1l15.7-51h116.3
		l15.7,51h84.1L1246.9,723z"/>
</g>
<g>
	<path d="M1153.3,887c19.3,0,34.9-15.6,34.9-34.9c0-19.3-15.6-34.9-34.9-34.9c-13,0-24.2,7.1-30.3,17.5c-1.9,3.3-3.3,7-4,10.9
		c-0.4,2.1-0.6,4.3-0.6,6.5C1118.4,871.4,1134,887,1153.3,887z"/>
</g>
<path d="M2094,11h-65.3l22.7,75l0,0.4c0-0.1,0.1-0.4,0.1-0.5l41.2,133.2h-40.3h-39.8h-78.2l-39.8,108h84.1l15.7-51h116.3l15.7,51
	h84.1L2094,11z"/>
<g>
	<path d="M966.9,912.6c21.5-8.1,64.9-24,64.9-87.5c0-28.6-10.3-53.5-25-70.1c-29.1-31.3-70.2-32.1-103.3-32.1H865v59h42.4
		c16.5,0,45.6,1.6,45.6,41.8c0,42-36.2,43.2-47.4,43.2H840v-41h-79v213h79V926h49.9l62.6,113h87.2L966.9,912.6z"/>
</g>
<g>
	<circle cx="800.7" cy="762.3" r="39.6"/>
</g>
<polygon points="0,73 83,73 83,327 162,327 162,118 162,72.9 162,10 0,10 "/>
<path d="M181,10v63h63V10H181z M232,61h-39V22h39V61z"/>
<path d="M3008.5,100.6c0.4-0.6,0.8-1.3,1.2-2C3009.3,99.3,3008.9,100,3008.5,100.6z"/>
<polygon points="3155.8,10.7 3155.8,10.7 3096.1,93.9 "/>
<path d="M2999.6,117.4c-0.2,0.5-0.5,1-0.7,1.6l0,0C2999.1,118.4,2999.3,117.9,2999.6,117.4z"/>
<polygon points="2840.1,10.7 2873.9,58.9 2840.1,10.7 "/>
<path d="M3020.8,81.2l-9,14.1c-0.8,1.2-1.4,2.3-2.1,3.4c0.6-1,1.3-2.2,2.1-3.4L3020.8,81.2z"/>
<path d="M3036,179v-1.9l59.9-83.1l59.9-83.1h-89.9l-45.1,70.3l-9,14c-0.8,1.2-1.4,2.3-2.1,3.3c-0.4,0.7-0.8,1.3-1.2,1.9
	c-0.2,0.3-0.4,0.6-0.6,0.9c-0.4,0.6-0.7,1.1-1,1.7c-3.5,5.9-4.8,8.6-7.3,14.2c-0.2,0.5-0.6,1-0.6,1.6v0.1l0,0L2930.9,11h-90.8
	l33.9,48.2l84.2,119.8H3036z"/>
<path d="M1475,151v60h0.5c-2.2,17-4.9,33.6-25.5,47c-13,8.5-29.1,12.1-43.4,12.1c-24.2,0-45.6-9.8-57.7-22.8
	c-15.2-15.7-25-44.7-25-80.5c0-52.8,22.8-102.4,82.8-102.4c43.8,0,62.2,27.7,73.4,44.7l59.9-36.2C1525.1,53.6,1484.4,0,1400.8,0
	c-89.9,0-155.7,67.5-155.7,169.1c0,93,53.9,164.6,142,164.6c53.2,0,79.8-24.6,92.8-36.7v30h62V151H1475z"/>
<path d="M1403,151v60h2h58v-60h-58H1403z M1414,162h38v38h-38V162z"/>
<polygon points="2729,11 2729,125 2614,125 2614,107 2534,107 2534,327 2614,327 2614,192 2729,192 2729,327 2808,327 2808,11 "/>
<path d="M2614,11h-80v79h80V11z M2599,76h-50V26h50V76z"/>
<g>
	<path d="M848,50.6C820.3,10.8,774.2,11,722.3,11H595v212h112h19.8c42.9-1,101.1-2.2,128.4-58.5c7.2-14.8,10.7-31.7,10.7-49.2
		C865.9,93.9,860.1,68.5,848,50.6z M721.9,165H674V69h50.5c22.8,0,62.6,0.1,62.6,46.2C787.2,164,751.4,165,721.9,165z"/>
</g>
<path d="M595,247v80h0.3H674h0.5h0.5v-80h-1H595z M663,315h-56v-56h56V315z"/>
<path d="M2478.7,50.8C2451,10.9,2404.9,11,2353,11h-127v316h79v-5.2v-98.6v-58.6v-46.9V69h50.2c22.8,0,62.6,0.1,62.6,46.2
	c0,0.9,0,1.8,0,2.8h78.7c0-1,0-1.7,0-2.4C2496.6,94.1,2490.8,68.6,2478.7,50.8z"/>
<path d="M2316,165v58h53.7h4.3v-0.3V165h-21.4H2316z M2363,212h-36v-37h36V212z"/>
<path d="M1448,545h37v-38h-37V545z M1455,514h23v24h-23V514z"/>
<g>
	<path d="M1668.4,580.2c12.5-20,12.5-44.2,12.5-63.2h-31.2c0,18-0.8,24.7-4.1,36.7l-28.9-37.9c14.8-13.3,31.5-25.6,31.5-49.7
		c0-27.9-29.2-36.1-46.8-36.1c-31.5,0-55.8,15.3-55.8,35.8c0,19.2,10.7,33.8,20.5,46.3c-19.2,12.5-36.3,28.1-36.3,52.7
		c0,36.1,23.5,56,66,56c19.7,0,36.8-3.2,51.4-17.5l11.3,14.7h37.9L1668.4,580.2z M1597,453c10,0,15.9,6.1,15.9,15.9
		c0,11.5-9.5,19.7-18.4,25.3c-6.7-7.7-13.6-16.1-13.6-26.6C1580.9,458.9,1588.8,453,1597,453z M1596.5,593.2
		c-17.7,0-28.1-10.7-28.1-28.4c0-12.3,9.5-22.8,18.7-29.9l37.6,46C1618,589.6,1607.5,593.2,1596.5,593.2z"/>
</g>
<circle cx="1736.1" cy="526" r="18.3"/>
<g>
	<path d="M1643.9,762c-27.7-39.8-73.8-40-125.7-40H1391v316h79v-4.4V935v-58.6v-46.9V781h50.5c22.8,0,62.6-0.4,62.6,45.7
		c0,0.9,0,2.3,0,2.3h78.7c0,0,0-1.3,0-2.1C1661.8,805.5,1656,779.8,1643.9,762z"/>
</g>
<g>
	<circle cx="1509.8" cy="905.3" r="29"/>
</g>
<g>
	<polygon points="1908,723 1908,837 1792,837 1792,819 1713,819 1713,1039 1792,1039 1792,904 1908,904 1908,1039 1987,1039 
		1987,723 	"/>
</g>
<g>
	<circle cx="1751.8" cy="763.2" r="39.2"/>
</g>
<g>
	<path d="M642,865v60h-0.1c-2.2,16-4.9,33.4-25.5,46.8c-13,8.5-29.1,12-43.4,12c-24.2,0-45.6-9.9-57.7-22.9
		c-15.2-15.7-25-44.8-25-80.5c0-52.8,22.8-102.4,82.8-102.4c43.8,0,62.2,27.7,73.4,44.7l59.9-36.2c-14.8-19.2-55.5-72.9-139.1-72.9
		c-89.9,0-155.7,67.5-155.7,169.1c0,93,54.2,164.6,142.3,164.6c53.2,0,80.1-24.6,93.1-36.7v29.4h62V865H642z"/>
</g>
<g>
	<path d="M571.2,872.7c-6.1,5.6-9.9,13.6-9.9,22.5s3.8,16.9,9.9,22.5c3.6,3.3,8.1,5.8,13,7c2.4,0.6,4.9,0.9,7.5,0.9s5.1-0.3,7.5-0.9
		c13.2-3.3,23-15.3,23-29.5c0-16.8-13.6-30.4-30.4-30.4C583.8,864.7,576.6,867.7,571.2,872.7z"/>
</g>
</svg>
